# File created by Blade
# Date/Time:  Wed Jan 21 17:05:57 2015
# Frame Rate: 120.000 fps
#------------------------------------------------------
:FULLY-SPECIFIED
:DEGREES
388
root 19.098770 8.387877 -13.608420 -181.197997 3.780401 -178.774293
Spine 78.373198 3.860194 0.884322
Head -12.340402 -0.394200 2.321372
LeftShoulder 24.433638 -64.818664 21.657329
LeftArm 52.065810 10.490823 -12.418466
LeftForeArm 1.948782 0.000000 -1.133152
LeftHand -5.551119 -0.000000 17.661095
LeftHandThumb1 -26.253704 0.000000 33.147579
RightShoulder 10.932673 27.948669 -35.604913
RightArm 52.051991 33.698395 18.997192
RightForeArm -26.560117 -0.000000 10.097981
RightHand -10.197018 0.000000 -13.100333
RightHandThumb1 -24.326973 -0.000000 -32.862282
LeftUpLeg -121.933533 28.935308 -8.623959
LeftLeg 149.814407 -0.000000 -0.000000
LeftFoot -48.144015 19.947562 -11.034213
LeftToeBase 26.085491 -0.000000 -0.000000
RightUpLeg -119.721431 -19.926001 6.686127
RightLeg 146.931504 -0.000000 -0.000000
RightFoot -47.084025 -24.566352 14.553468
RightToeBase 25.068555 -0.000000 -0.000000
389
root 19.106495 8.397862 -13.613657 -181.233926 3.800100 -178.824687
Spine 78.352540 3.867300 0.710815
Head -12.454493 -0.317688 2.280844
LeftShoulder 23.980287 -64.537218 22.024695
LeftArm 52.218156 10.578262 -11.817425
LeftForeArm 1.407567 -0.000000 -0.987028
LeftHand -5.602530 -0.000000 17.492408
LeftHandThumb1 -26.253704 0.000000 33.147579
RightShoulder 10.870352 28.189961 -35.631075
RightArm 52.492825 33.771526 19.701081
RightForeArm -27.270206 0.000000 9.943519
RightHand -10.027058 -0.000000 -12.977129
RightHandThumb1 -24.326973 -0.000000 -32.862282
LeftUpLeg -121.784252 29.022904 -8.599209
LeftLeg 149.783596 -0.000000 -0.000000
LeftFoot -48.206270 19.855701 -11.039183
LeftToeBase 26.096100 -0.000000 -0.000000
RightUpLeg -119.675065 -19.922277 6.689239
RightLeg 146.942210 -0.000000 -0.000000
RightFoot -47.138796 -24.528267 14.626390
RightToeBase 25.049089 -0.000000 -0.000000
390
root 19.111662 8.402367 -13.617855 -181.276050 3.819949 -178.886373
Spine 78.324222 3.928207 0.670030
Head -12.581644 -0.391068 2.340884
LeftShoulder 24.063389 -64.598613 21.985919
LeftArm 52.211893 10.730642 -11.661437
LeftForeArm 1.272097 -0.000000 -0.989733
LeftHand -5.652542 -0.000000 17.498341
LeftHandThumb1 -26.253704 0.000000 33.147579
RightShoulder 10.861258 27.496088 -35.581608
RightArm 51.899525 33.715269 18.275932
RightForeArm -26.050004 -0.000000 10.112831
RightHand -10.154794 -0.000000 -12.804597
RightHandThumb1 -24.326973 -0.000000 -32.862282
LeftUpLeg -121.636430 29.069962 -8.585425
LeftLeg 149.768474 -0.000000 -0.000000
LeftFoot -48.244745 19.792956 -11.096368
LeftToeBase 25.866934 -0.000000 -0.000000
RightUpLeg -119.637245 -19.931023 6.662401
RightLeg 146.958476 -0.000000 -0.000000
RightFoot -47.169687 -24.513930 14.638926
RightToeBase 24.996554 -0.000000 -0.000000
391
root 19.119659 8.402480 -13.624787 -181.252103 3.868933 -178.946746
Spine 78.166262 4.036507 0.583771
Head -12.611051 -0.413334 2.427626
LeftShoulder 24.101362 -64.596709 21.944531
LeftArm 52.276571 10.553940 -11.949916
LeftForeArm 1.732387 -0.000000 -1.173345
LeftHand -5.567945 0.000000 17.568132
LeftHandThumb1 -26.253704 0.000000 33.147579
RightShoulder 10.836363 27.489507 -35.509817
RightArm 52.065594 33.757591 18.522207
RightForeArm -26.401873 -0.000000 10.062704
RightHand -10.127100 -0.000000 -12.765023
RightHandThumb1 -24.326973 -0.000000 -32.862282
LeftUpLeg -121.579628 29.179671 -8.585564
LeftLeg 149.756178 -0.000000 -0.000000
LeftFoot -48.341230 19.805908 -11.001113
LeftToeBase 26.115123 -0.000000 -0.000000
RightUpLeg -119.679896 -19.890287 6.668623
RightLeg 146.986015 -0.000000 -0.000000
RightFoot -47.220831 -24.518003 14.638844
RightToeBase 24.943553 -0.000000 -0.000000
392
root 19.126188 8.392963 -13.630766 -181.176061 3.919683 -179.025795
Spine 77.888363 4.139982 0.426787
Head -12.561034 -0.444719 2.545410
LeftShoulder 23.965511 -64.474039 22.045117
LeftArm 52.394372 10.693834 -11.774689
LeftForeArm 1.410102 -0.000000 -1.117183
LeftHand -5.579471 0.000000 17.737973
LeftHandThumb1 -26.253704 0.000000 33.147579
RightShoulder 10.765572 27.480445 -35.418692
RightArm 52.424350 33.743512 18.942924
RightForeArm -26.763323 -0.000000 9.992106
RightHand -10.072632 0.000000 -12.777847
RightHandThumb1 -24.326973 -0.000000 -32.862282
LeftUpLeg -121.593058 29.248898 -8.620512
LeftLeg 149.768569 -0.000000 -0.000000
LeftFoot -48.428563 19.839687 -10.912602
LeftToeBase 26.180153 -0.000000 -0.000000
RightUpLeg -119.809434 -19.839331 6.658674
RightLeg 147.027004 -0.000000 -0.000000
RightFoot -47.265486 -24.572191 14.570449
RightToeBase 25.066629 -0.000000 -0.000000
393
root 19.136714 8.407371 -13.641255 -181.244401 3.971911 -179.109969
Spine 77.861634 4.243328 0.248270
Head -12.672465 -0.399887 2.623269
LeftShoulder 23.930523 -64.478647 22.056946
LeftArm 52.418376 10.821371 -11.544034
LeftForeArm 1.551661 0.000000 -1.083208
LeftHand -5.621477 -0.000000 17.444905
LeftHandThumb1 -26.253704 0.000000 33.147579
RightShoulder 10.741319 27.690990 -35.367376
RightArm 52.620153 33.721336 19.372736
RightForeArm -27.199406 0.000000 9.952661
RightHand -10.040059 -0.000000 -12.737091
RightHandThumb1 -24.326973 -0.000000 -32.862282
LeftUpLeg -121.331702 29.379317 -8.567570
LeftLeg 149.733585 -0.000000 -0.000000
LeftFoot -48.550698 19.733219 -10.965281
LeftToeBase 26.208319 -0.000000 -0.000000
RightUpLeg -119.708696 -19.812829 6.621460
RightLeg 147.046293 -0.000000 -0.000000
RightFoot -47.337185 -24.480344 14.682306
RightToeBase 25.041695 -0.000000 -0.000000
